<svg width="195" height="195" viewBox="0 0 195 195" fill="none" xmlns="http://www.w3.org/2000/svg">
<circle cx="97.5" cy="97.5" r="97.5" fill="#DDDDDD"/>
<path d="M44.886 115.144C44.202 115.144 43.446 115.12 42.618 115.072C41.79 115.024 41.064 114.958 40.44 114.874V113.092C41.916 113.236 43.2 113.308 44.292 113.308C44.94 113.308 45.444 113.284 45.804 113.236C46.164 113.176 46.446 113.08 46.65 112.948C46.842 112.828 46.968 112.66 47.028 112.444C47.088 112.216 47.118 111.898 47.118 111.49C47.118 111.046 47.088 110.722 47.028 110.518C46.98 110.314 46.866 110.164 46.686 110.068C46.518 109.972 46.23 109.906 45.822 109.87L42.87 109.528C42.114 109.444 41.532 109.264 41.124 108.988C40.728 108.7 40.452 108.322 40.296 107.854C40.152 107.386 40.08 106.792 40.08 106.072C40.08 105.052 40.26 104.284 40.62 103.768C40.992 103.24 41.496 102.892 42.132 102.724C42.768 102.556 43.596 102.472 44.616 102.472C45.312 102.472 46.026 102.508 46.758 102.58C47.49 102.64 48.084 102.718 48.54 102.814V104.542C48.096 104.47 47.544 104.416 46.884 104.38C46.224 104.332 45.6 104.308 45.012 104.308C44.376 104.308 43.872 104.332 43.5 104.38C43.128 104.428 42.84 104.512 42.636 104.632C42.42 104.752 42.282 104.914 42.222 105.118C42.162 105.31 42.132 105.598 42.132 105.982C42.132 106.414 42.162 106.726 42.222 106.918C42.282 107.098 42.402 107.23 42.582 107.314C42.774 107.398 43.08 107.464 43.5 107.512L46.47 107.854C47.094 107.914 47.592 108.04 47.964 108.232C48.348 108.412 48.636 108.73 48.828 109.186C49.044 109.666 49.152 110.398 49.152 111.382C49.152 112.474 48.978 113.296 48.63 113.848C48.282 114.388 47.814 114.742 47.226 114.91C46.638 115.066 45.858 115.144 44.886 115.144ZM55.434 115.144C54.138 115.144 53.202 115.012 52.626 114.748C52.062 114.472 51.702 114.028 51.546 113.416C51.39 112.792 51.312 111.784 51.312 110.392C51.312 109.012 51.39 108.016 51.546 107.404C51.702 106.78 52.062 106.336 52.626 106.072C53.202 105.808 54.138 105.676 55.434 105.676C56.73 105.676 57.66 105.808 58.224 106.072C58.8 106.336 59.166 106.78 59.322 107.404C59.478 108.016 59.556 109.012 59.556 110.392C59.556 111.784 59.478 112.792 59.322 113.416C59.166 114.028 58.8 114.472 58.224 114.748C57.66 115.012 56.73 115.144 55.434 115.144ZM55.434 113.452C56.19 113.452 56.712 113.386 57 113.254C57.288 113.11 57.462 112.852 57.522 112.48C57.594 112.108 57.63 111.412 57.63 110.392C57.63 109.372 57.594 108.682 57.522 108.322C57.462 107.95 57.288 107.698 57 107.566C56.712 107.434 56.19 107.368 55.434 107.368C54.678 107.368 54.156 107.434 53.868 107.566C53.58 107.698 53.4 107.95 53.328 108.322C53.268 108.682 53.238 109.372 53.238 110.392C53.238 111.412 53.268 112.108 53.328 112.48C53.4 112.852 53.58 113.11 53.868 113.254C54.156 113.386 54.678 113.452 55.434 113.452ZM66.8491 115.144C66.1771 115.144 65.5951 115.054 65.1031 114.874C64.6111 114.682 64.2391 114.328 63.9871 113.812H63.8611L63.8071 115H62.0431V101.626H63.9511V106.882H64.0591C64.3231 106.426 64.6891 106.114 65.1571 105.946C65.6251 105.766 66.2131 105.676 66.9211 105.676C67.7491 105.676 68.3911 105.82 68.8471 106.108C69.3031 106.384 69.6271 106.864 69.8191 107.548C70.0231 108.22 70.1251 109.174 70.1251 110.41C70.1251 111.646 70.0231 112.606 69.8191 113.29C69.6151 113.962 69.2791 114.442 68.8111 114.73C68.3431 115.006 67.6891 115.144 66.8491 115.144ZM66.0751 113.344C66.7471 113.344 67.2211 113.284 67.4971 113.164C67.7851 113.032 67.9771 112.774 68.0731 112.39C68.1691 111.994 68.2171 111.334 68.2171 110.41C68.2171 109.486 68.1691 108.832 68.0731 108.448C67.9771 108.064 67.7851 107.812 67.4971 107.692C67.2211 107.56 66.7471 107.494 66.0751 107.494C65.6071 107.494 65.2291 107.548 64.9411 107.656C64.6531 107.752 64.4431 107.914 64.3111 108.142C64.1671 108.358 64.0711 108.646 64.0231 109.006C63.9751 109.354 63.9511 109.822 63.9511 110.41C63.9511 110.998 63.9751 111.472 64.0231 111.832C64.0711 112.192 64.1671 112.486 64.3111 112.714C64.5751 113.134 65.1631 113.344 66.0751 113.344ZM72.6251 105.82H74.3711L74.4431 107.458H74.5871C74.8031 106.786 75.1511 106.324 75.6311 106.072C76.1231 105.808 76.7771 105.676 77.5931 105.676V107.656C76.7771 107.656 76.1471 107.776 75.7031 108.016C75.2711 108.244 74.9651 108.61 74.7851 109.114C74.6171 109.606 74.5331 110.296 74.5331 111.184V115H72.6251V105.82ZM86.9527 111.094H80.9587C80.9587 111.826 81.0067 112.348 81.1027 112.66C81.2107 112.96 81.4507 113.17 81.8227 113.29C82.2067 113.41 82.8487 113.47 83.7487 113.47C84.5407 113.47 85.4887 113.41 86.5927 113.29V114.874C86.1967 114.958 85.6927 115.024 85.0807 115.072C84.4687 115.12 83.8747 115.144 83.2987 115.144C82.0147 115.144 81.0727 115 80.4727 114.712C79.8727 114.412 79.4827 113.944 79.3027 113.308C79.1227 112.672 79.0327 111.712 79.0327 110.428C79.0327 109.204 79.1227 108.268 79.3027 107.62C79.4827 106.972 79.8667 106.486 80.4547 106.162C81.0427 105.838 81.9487 105.676 83.1727 105.676C84.3487 105.676 85.2007 105.838 85.7287 106.162C86.2687 106.486 86.6047 106.96 86.7367 107.584C86.8807 108.196 86.9527 109.144 86.9527 110.428V111.094ZM83.1187 107.35C82.4707 107.35 81.9967 107.416 81.6967 107.548C81.4087 107.668 81.2167 107.884 81.1207 108.196C81.0247 108.508 80.9707 109.012 80.9587 109.708H85.1347V109.672C85.1347 108.988 85.0747 108.484 84.9547 108.16C84.8347 107.836 84.6367 107.62 84.3607 107.512C84.0967 107.404 83.6827 107.35 83.1187 107.35ZM91.4316 115L88.2636 105.82H90.2436L92.6196 113.038H92.7816L95.1216 105.82H97.0836L93.9156 115H91.4316ZM98.8684 103.57V101.626H100.866V103.57H98.8684ZM98.9044 115V105.82H100.812V115H98.9044ZM105.828 115L102.66 105.82H104.64L107.016 113.038H107.178L109.518 105.82H111.48L108.312 115H105.828ZM120.685 111.094H114.691C114.691 111.826 114.739 112.348 114.835 112.66C114.943 112.96 115.183 113.17 115.555 113.29C115.939 113.41 116.581 113.47 117.481 113.47C118.273 113.47 119.221 113.41 120.325 113.29V114.874C119.929 114.958 119.425 115.024 118.813 115.072C118.201 115.12 117.607 115.144 117.031 115.144C115.747 115.144 114.805 115 114.205 114.712C113.605 114.412 113.215 113.944 113.035 113.308C112.855 112.672 112.765 111.712 112.765 110.428C112.765 109.204 112.855 108.268 113.035 107.62C113.215 106.972 113.599 106.486 114.187 106.162C114.775 105.838 115.681 105.676 116.905 105.676C118.081 105.676 118.933 105.838 119.461 106.162C120.001 106.486 120.337 106.96 120.469 107.584C120.613 108.196 120.685 109.144 120.685 110.428V111.094ZM116.851 107.35C116.203 107.35 115.729 107.416 115.429 107.548C115.141 107.668 114.949 107.884 114.853 108.196C114.757 108.508 114.703 109.012 114.691 109.708H118.867V109.672C118.867 108.988 118.807 108.484 118.687 108.16C118.567 107.836 118.369 107.62 118.093 107.512C117.829 107.404 117.415 107.35 116.851 107.35ZM114.043 104.218V104.092L115.825 101.626H117.751L119.533 104.092V104.218H118.237L116.779 102.598L115.321 104.218H114.043ZM129.156 110.068C129.156 109.24 129.114 108.658 129.03 108.322C128.946 107.974 128.778 107.752 128.526 107.656C128.274 107.548 127.836 107.494 127.212 107.494C126.588 107.494 126.12 107.59 125.808 107.782C125.508 107.974 125.31 108.262 125.214 108.646C125.13 109.018 125.088 109.558 125.088 110.266V115H123.18V105.82H124.944L124.998 107.026H125.142C125.358 106.57 125.694 106.234 126.15 106.018C126.618 105.79 127.254 105.676 128.058 105.676C128.898 105.676 129.534 105.808 129.966 106.072C130.398 106.336 130.686 106.72 130.83 107.224C130.986 107.716 131.064 108.394 131.064 109.258V115H129.156V110.068ZM139.95 114.892C139.626 114.964 139.224 115.024 138.744 115.072C138.264 115.12 137.808 115.144 137.376 115.144C136.224 115.144 135.378 114.976 134.838 114.64C134.298 114.304 133.95 113.818 133.794 113.182C133.638 112.546 133.56 111.616 133.56 110.392C133.56 109.24 133.65 108.34 133.83 107.692C134.01 107.032 134.37 106.534 134.91 106.198C135.45 105.85 136.254 105.676 137.322 105.676C137.754 105.676 138.21 105.7 138.69 105.748C139.17 105.796 139.566 105.862 139.878 105.946V107.548C139.254 107.428 138.564 107.368 137.808 107.368C137.1 107.368 136.584 107.452 136.26 107.62C135.948 107.776 135.738 108.058 135.63 108.466C135.534 108.874 135.486 109.522 135.486 110.41C135.486 111.322 135.54 111.982 135.648 112.39C135.756 112.798 135.966 113.08 136.278 113.236C136.602 113.38 137.124 113.452 137.844 113.452C138.432 113.452 139.134 113.398 139.95 113.29V114.892ZM142.181 103.57V101.626H144.179V103.57H142.181ZM142.217 115V105.82H144.125V115H142.217ZM149.321 115.144C148.337 115.144 147.611 114.94 147.143 114.532C146.687 114.124 146.459 113.428 146.459 112.444C146.459 111.724 146.543 111.166 146.711 110.77C146.879 110.362 147.167 110.068 147.575 109.888C147.983 109.696 148.559 109.6 149.303 109.6C149.987 109.6 151.025 109.624 152.417 109.672V109.276C152.417 108.664 152.351 108.232 152.219 107.98C152.099 107.716 151.871 107.548 151.535 107.476C151.199 107.404 150.617 107.368 149.789 107.368C149.393 107.368 148.907 107.386 148.331 107.422C147.755 107.458 147.329 107.5 147.053 107.548V105.946C148.061 105.766 149.195 105.676 150.455 105.676C151.583 105.676 152.417 105.802 152.957 106.054C153.509 106.294 153.875 106.666 154.055 107.17C154.235 107.674 154.325 108.4 154.325 109.348V115H152.579L152.507 113.83H152.399C152.123 114.358 151.715 114.712 151.175 114.892C150.635 115.06 150.017 115.144 149.321 115.144ZM150.185 113.506C150.677 113.506 151.079 113.458 151.391 113.362C151.703 113.254 151.937 113.074 152.093 112.822C152.309 112.462 152.417 111.934 152.417 111.238V110.968H149.789C149.369 110.968 149.057 110.998 148.853 111.058C148.661 111.118 148.523 111.238 148.439 111.418C148.367 111.598 148.331 111.874 148.331 112.246C148.331 112.618 148.373 112.894 148.457 113.074C148.553 113.242 148.727 113.356 148.979 113.416C149.231 113.476 149.633 113.506 150.185 113.506Z" fill="#2F3645"/>
<path d="M41.184 100H44.736V82.216H41.184V100ZM49.1059 100H52.4659V92.872C52.4659 90.832 52.2019 88.6 52.0339 86.68H52.1539L53.9539 90.496L59.0899 100H62.6899V82.216H59.3299V89.32C59.3299 91.336 59.6179 93.688 59.7859 95.536H59.6659L57.8899 91.696L52.7299 82.216H49.1059V100ZM74.7144 100.336C77.1864 100.336 79.2744 99.376 80.4744 98.2V90.184H74.1624V93.088H77.3064V96.592C76.8024 97.024 75.9384 97.264 75.0984 97.264C71.5944 97.264 69.8184 94.936 69.8184 91.072C69.8184 87.256 71.8824 84.952 74.8344 84.952C76.4424 84.952 77.4504 85.6 78.3384 86.44L80.2104 84.184C79.0584 83.008 77.2824 81.904 74.7144 81.904C69.9864 81.904 66.1944 85.336 66.1944 91.192C66.1944 97.12 69.8904 100.336 74.7144 100.336ZM84.2856 100H95.0616V97.024H87.8376V82.216H84.2856V100ZM98.1606 100H109.321V97.024H101.713V92.272H107.953V89.296H101.713V85.192H109.057V82.216H98.1606V100ZM100.945 81.232L103.825 78.904H103.921L106.801 81.232L108.313 80.272L105.793 77.248H101.953L99.4326 80.272L100.945 81.232ZM118.23 100.336C122.334 100.336 124.758 97.864 124.758 94.96C124.758 92.392 123.342 91.024 121.182 90.136L118.854 89.152C117.342 88.552 116.094 88.096 116.094 86.824C116.094 85.648 117.078 84.952 118.638 84.952C120.102 84.952 121.278 85.48 122.406 86.416L124.206 84.184C122.766 82.72 120.702 81.904 118.638 81.904C115.038 81.904 112.494 84.136 112.494 87.04C112.494 89.632 114.294 91.072 116.094 91.816L118.47 92.824C120.054 93.496 121.134 93.904 121.134 95.224C121.134 96.472 120.15 97.264 118.302 97.264C116.742 97.264 115.062 96.472 113.79 95.296L111.75 97.744C113.478 99.4 115.854 100.336 118.23 100.336Z" fill="#2F3645"/>
<path d="M127.656 88.616H131.724C133.476 88.616 134.712 88.778 135.432 89.102C136.164 89.426 136.626 89.984 136.818 90.776C137.01 91.556 137.106 92.9 137.106 94.808C137.106 96.716 137.01 98.066 136.818 98.858C136.626 99.65 136.164 100.208 135.432 100.532C134.712 100.844 133.476 101 131.724 101H127.656V88.616ZM131.526 99.164C132.798 99.164 133.644 99.098 134.064 98.966C134.496 98.834 134.772 98.498 134.892 97.958C135.024 97.418 135.09 96.368 135.09 94.808C135.09 93.272 135.024 92.234 134.892 91.694C134.76 91.142 134.478 90.8 134.046 90.668C133.614 90.524 132.774 90.452 131.526 90.452H129.69V99.164H131.526ZM148.239 101L147.141 98.012H141.903L140.841 101H138.789L143.235 88.616H145.881L150.327 101H148.239ZM144.567 90.668H144.477L142.497 96.194H146.547L144.567 90.668Z" fill="#2F3645"/>
</svg>
