<svg width="195" height="195" viewBox="0 0 195 195" fill="none" xmlns="http://www.w3.org/2000/svg">
<circle cx="97.5" cy="97.5" r="97.5" fill="#DDDDDD"/>
<path d="M22.1113 83.8421L49.3335 109.632" stroke="#2F3645" stroke-width="3"/>
<path d="M22.2452 95.5481L17.5326 91.0835C16.6999 90.2946 16.6999 88.9685 17.5326 88.1797L27.9578 78.3031C28.7292 77.5723 29.9374 77.5723 30.7088 78.3031L34.6245 82.0127C35.3959 82.7435 36.6041 82.7435 37.3755 82.0127L41.2912 78.3031C42.0626 77.5723 43.2708 77.5723 44.0422 78.3031L54.4674 88.1797C55.3001 88.9685 55.3001 90.2946 54.4674 91.0835L49.7548 95.5481C48.9221 96.337 48.9221 97.663 49.7548 98.4519L54.4674 102.917C55.3001 103.705 55.3001 105.031 54.4674 105.82L44.0422 115.697C43.2708 116.428 42.0626 116.428 41.2912 115.697L37.3755 111.987C36.6041 111.257 35.3959 111.257 34.6245 111.987L30.7088 115.697C29.9374 116.428 28.7292 116.428 27.9578 115.697L17.5326 105.82C16.6999 105.031 16.6999 103.705 17.5326 102.917L22.2452 98.4519C23.0779 97.663 23.0779 96.337 22.2452 95.5481Z" stroke="#2F3645" stroke-width="3" stroke-linecap="round"/>
<path d="M49.8891 83.8421L22.1113 110.158" stroke="#2F3645" stroke-width="3"/>
<path d="M75.73 101.355V102H63.835V101.355H65.29V91.515H68.995C70.865 91.515 72.3 91.975 73.3 92.895C74.3 93.805 74.8 95.09 74.8 96.75C74.8 98.99 73.93 100.525 72.19 101.355H75.73ZM69.115 99.93C70.185 99.93 71.005 99.66 71.575 99.12C72.155 98.58 72.445 97.795 72.445 96.765C72.445 95.735 72.155 94.945 71.575 94.395C71.005 93.835 70.125 93.555 68.935 93.555H67.63V99.93H69.115ZM77.0234 101.355V91.515H84.5834V93.6H79.3634V95.76H84.0584V97.755H79.3634V99.93H84.7484V101.355H86.2034V102H75.5684V101.355H77.0234ZM95.1179 101.355V102H85.5479V101.355H87.5879C87.0379 101.075 86.5379 100.715 86.0879 100.275L87.4829 98.565C88.6129 99.555 89.6579 100.05 90.6179 100.05C91.0479 100.05 91.3829 99.96 91.6229 99.78C91.8729 99.59 91.9979 99.34 91.9979 99.03C91.9979 98.71 91.8679 98.46 91.6079 98.28C91.3479 98.09 90.8329 97.9 90.0629 97.71C88.8429 97.42 87.9479 97.045 87.3779 96.585C86.8179 96.115 86.5379 95.385 86.5379 94.395C86.5379 93.395 86.8929 92.625 87.6029 92.085C88.3229 91.545 89.2179 91.275 90.2879 91.275C90.9879 91.275 91.6879 91.395 92.3879 91.635C93.0879 91.875 93.6979 92.215 94.2179 92.655L93.0329 94.365C92.1229 93.675 91.1829 93.33 90.2129 93.33C89.8229 93.33 89.5129 93.425 89.2829 93.615C89.0629 93.795 88.9529 94.04 88.9529 94.35C88.9529 94.65 89.0879 94.89 89.3579 95.07C89.6379 95.25 90.2729 95.465 91.2629 95.715C92.2629 95.955 93.0379 96.32 93.5879 96.81C94.1379 97.3 94.4129 97.98 94.4129 98.85C94.4129 99.93 94.0079 100.765 93.1979 101.355H95.1179ZM100.033 101.355V102H95.1133V101.355H96.4033V91.515H98.7433V101.355H100.033ZM111.285 101.355V102H100.035V101.355H103.29C102.49 100.885 101.86 100.25 101.4 99.45C100.95 98.64 100.725 97.725 100.725 96.705C100.725 95.165 101.255 93.875 102.315 92.835C103.385 91.795 104.67 91.275 106.17 91.275C107.68 91.275 108.99 91.77 110.1 92.76L108.885 94.515C108.415 94.105 107.98 93.825 107.58 93.675C107.19 93.515 106.765 93.435 106.305 93.435C105.415 93.435 104.665 93.74 104.055 94.35C103.445 94.95 103.14 95.745 103.14 96.735C103.14 97.725 103.43 98.52 104.01 99.12C104.6 99.71 105.3 100.005 106.11 100.005C106.92 100.005 107.595 99.85 108.135 99.54V96.66H110.49V100.38C110.15 100.76 109.745 101.085 109.275 101.355H111.285ZM112.575 101.355V91.515H114.765L119.91 98.265V91.515H122.25V101.355H123.705V102H119.91L114.915 95.43V102H111.12V101.355H112.575ZM134.586 101.355V102H123.546V101.355H126.771C125.971 100.885 125.341 100.25 124.881 99.45C124.431 98.64 124.206 97.725 124.206 96.705C124.206 95.165 124.736 93.875 125.796 92.835C126.866 91.795 128.171 91.275 129.711 91.275C131.431 91.275 132.871 91.93 134.031 93.24L132.576 94.89C131.836 93.97 130.916 93.51 129.816 93.51C128.936 93.51 128.181 93.8 127.551 94.38C126.931 94.95 126.621 95.725 126.621 96.705C126.621 97.675 126.916 98.455 127.506 99.045C128.096 99.635 128.811 99.93 129.651 99.93C130.801 99.93 131.741 99.475 132.471 98.565L133.971 100.11C133.531 100.62 133.036 101.035 132.486 101.355H134.586ZM146.981 101.355V102H134.591V101.355H137.936C137.116 100.885 136.466 100.24 135.986 99.42C135.516 98.6 135.281 97.69 135.281 96.69C135.281 95.15 135.811 93.865 136.871 92.835C137.931 91.795 139.236 91.275 140.786 91.275C142.336 91.275 143.641 91.795 144.701 92.835C145.761 93.865 146.291 95.15 146.291 96.69C146.291 97.69 146.051 98.6 145.571 99.42C145.091 100.24 144.446 100.885 143.636 101.355H146.981ZM143.906 96.705C143.906 95.765 143.606 94.965 143.006 94.305C142.406 93.645 141.666 93.315 140.786 93.315C139.916 93.315 139.181 93.645 138.581 94.305C137.981 94.965 137.681 95.765 137.681 96.705C137.681 97.635 137.981 98.43 138.581 99.09C139.181 99.74 139.916 100.065 140.786 100.065C141.666 100.065 142.406 99.74 143.006 99.09C143.606 98.43 143.906 97.635 143.906 96.705ZM157.663 95.4L154.828 101.13H153.433L150.613 95.4V102H146.818V101.355H148.273V91.515H151.438L154.138 97.275L156.853 91.515H160.003V101.355H161.458V102H157.663V95.4ZM171.615 101.355V102H161.295V101.355H165.195L161.25 91.515H163.785L166.455 98.19L169.125 91.515H171.66L167.7 101.355H171.615ZM182.662 101.355V102H171.622V101.355H174.847C174.047 100.885 173.417 100.25 172.957 99.45C172.507 98.64 172.282 97.725 172.282 96.705C172.282 95.165 172.812 93.875 173.872 92.835C174.942 91.795 176.247 91.275 177.787 91.275C179.507 91.275 180.947 91.93 182.107 93.24L180.652 94.89C179.912 93.97 178.992 93.51 177.892 93.51C177.012 93.51 176.257 93.8 175.627 94.38C175.007 94.95 174.697 95.725 174.697 96.705C174.697 97.675 174.992 98.455 175.582 99.045C176.172 99.635 176.887 99.93 177.727 99.93C178.877 99.93 179.817 99.475 180.547 98.565L182.047 100.11C181.607 100.62 181.112 101.035 180.562 101.355H182.662Z" fill="#2F3645"/>
</svg>
